<?xml version="1.0" ?>
<svg version="1.2" baseProfile="tiny-ps" xmlns="http://www.w3.org/2000/svg" viewBox="0 0 500 500">
    <title>JBR Logo</title>

    <!-- Main Shape 1 -->
    <g transform="translate(103.054, 229.065)">
        <path fill="#000000" d="M 72.359375 -186.5 L 72.359375 -32.125 C 72.359375 -23.070312 69.351562 -15.453125 63.34375 -9.265625 C 57.332031 -3.085938 48.40625 0 36.5625 0 L 4.96875 0 L 4.96875 -33.4375 C 8.101562 -33.082031 10.453125 -32.90625 12.015625 -32.90625 C 16.015625 -32.90625 19.0625 -33.953125 21.15625 -36.046875 C 23.25 -38.140625 24.296875 -41.796875 24.296875 -47.015625 L 24.296875 -186.5 Z M 72.359375 -186.5 " />
    </g>

    <!-- Main Shape 2 -->
    <g transform="translate(178.474, 313.068)">
        <path fill="#000000" d="M 116.46875 -153.78125 L 116.46875 -134.453125 C 116.46875 -123.898438 114.050781 -115.984375 109.21875 -110.703125 C 104.394531 -105.421875 97.148438 -102.425781 87.484375 -101.71875 L 87.484375 -101.171875 C 98.046875 -100.460938 105.832031 -97.421875 110.84375 -92.046875 C 115.851562 -86.679688 118.359375 -78.722656 118.359375 -68.171875 L 118.359375 0 L 72.1875 0 L 72.1875 -73.53125 C 72.1875 -84.09375 67.894531 -89.375 59.3125 -89.375 C 57.34375 -89.375 55.460938 -89.101562 53.671875 -88.5625 L 53.671875 0 L 5.90625 0 L 5.90625 -191.625 L 63.609375 -191.625 C 75.054688 -191.625 84.445312 -190.769531 91.78125 -189.0625 C 99.113281 -187.363281 105.0625 -183.785156 109.625 -178.328125 C 114.1875 -172.878906 116.46875 -164.695312 116.46875 -153.78125 Z M 57.15625 -118.359375 C 62.882812 -118.359375 66.820312 -119.65625 68.96875 -122.25 C 71.113281 -124.84375 72.1875 -127.835938 72.1875 -131.234375 L 72.1875 -148.140625 C 72.1875 -151.359375 71.113281 -154.3125 68.96875 -157 C 66.820312 -159.6875 62.976562 -161.03125 57.4375 -161.03125 L 53.671875 -161.03125 L 53.671875 -118.359375 Z M 57.15625 -118.359375 " />
    </g>

    <!-- Bottom Text Elements (Flattened Group) -->
    <g transform="translate(122, 300)">
        <!-- Letter 1 -->
        <g transform="translate(0.96, 10.42)">
            <path fill="#000000" d="M 5.59375 -9.765625 C 6.382812 -9.765625 7.132812 -9.597656 7.84375 -9.265625 C 8.5625 -8.929688 9.140625 -8.457031 9.578125 -7.84375 C 10.023438 -7.226562 10.25 -6.519531 10.25 -5.71875 C 10.25 -4.78125 10.03125 -4.023438 9.59375 -3.453125 C 9.15625 -2.878906 8.664062 -2.46875 8.125 -2.21875 C 7.582031 -1.976562 7.144531 -1.859375 6.8125 -1.859375 C 6.632812 -1.859375 6.472656 -1.914062 6.328125 -2.03125 C 6.191406 -2.144531 6.117188 -2.3125 6.109375 -2.53125 L 6.09375 -2.53125 C 5.90625 -2.320312 5.691406 -2.15625 5.453125 -2.03125 C 5.222656 -1.914062 5.003906 -1.859375 4.796875 -1.859375 C 4.421875 -1.859375 4.0625 -1.96875 3.71875 -2.1875 C 3.382812 -2.40625 3.113281 -2.695312 2.90625 -3.0625 C 2.695312 -3.4375 2.59375 -3.835938 2.59375 -4.265625 C 2.59375 -4.785156 2.703125 -5.28125 2.921875 -5.75 C 3.140625 -6.226562 3.453125 -6.609375 3.859375 -6.890625 C 4.273438 -7.171875 4.75 -7.3125 5.28125 -7.3125 C 6 -7.3125 6.550781 -7.054688 6.9375 -6.546875 L 7.046875 -7.1875 L 8.3125 -7.1875 L 7.703125 -3.953125 C 7.671875 -3.753906 7.65625 -3.613281 7.65625 -3.53125 C 7.65625 -3.34375 7.707031 -3.25 7.8125 -3.25 C 8.007812 -3.25 8.203125 -3.320312 8.390625 -3.46875 C 8.578125 -3.613281 8.734375 -3.835938 8.859375 -4.140625 C 8.984375 -4.453125 9.046875 -4.847656 9.046875 -5.328125 C 9.046875 -6.359375 8.722656 -7.15625 8.078125 -7.71875 C 7.441406 -8.28125 6.597656 -8.5625 5.546875 -8.5625 C 4.816406 -8.5625 4.175781 -8.398438 3.625 -8.078125 C 3.070312 -7.753906 2.648438 -7.304688 2.359375 -6.734375 C 2.066406 -6.160156 1.921875 -5.503906 1.921875 -4.765625 C 1.921875 -3.992188 2.082031 -3.320312 2.40625 -2.75 C 2.726562 -2.1875 3.179688 -1.753906 3.765625 -1.453125 C 4.347656 -1.148438 5.019531 -1 5.78125 -1 C 6.757812 -1 7.601562 -1.265625 8.3125 -1.796875 L 9.640625 -1.796875 C 9.148438 -1.140625 8.566406 -0.640625 7.890625 -0.296875 C 7.222656 0.0351562 6.484375 0.203125 5.671875 0.203125 C 4.722656 0.203125 3.847656 -0.0078125 3.046875 -0.4375 C 2.253906 -0.863281 1.625 -1.457031 1.15625 -2.21875 C 0.695312 -2.976562 0.46875 -3.828125 0.46875 -4.765625 C 0.46875 -5.710938 0.695312 -6.566406 1.15625 -7.328125 C 1.613281 -8.085938 2.234375 -8.679688 3.015625 -9.109375 C 3.804688 -9.546875 4.664062 -9.765625 5.59375 -9.765625 Z M 4.203125 -4.484375 C 4.203125 -4.171875 4.285156 -3.910156 4.453125 -3.703125 C 4.628906 -3.492188 4.875 -3.390625 5.1875 -3.390625 C 5.582031 -3.390625 5.90625 -3.523438 6.15625 -3.796875 C 6.40625 -4.066406 6.53125 -4.398438 6.53125 -4.796875 C 6.53125 -5.109375 6.4375 -5.363281 6.25 -5.5625 C 6.0625 -5.769531 5.804688 -5.875 5.484375 -5.875 C 5.242188 -5.875 5.023438 -5.804688 4.828125 -5.671875 C 4.628906 -5.535156 4.472656 -5.359375 4.359375 -5.140625 C 4.253906 -4.929688 4.203125 -4.710938 4.203125 -4.484375 Z M 4.203125 -4.484375 " />
        </g>
        <!-- Letter 2 -->
        <g transform="translate(12.99, 10.42)">
            <path fill="#000000" d="M 3.171875 -9.765625 C 4.046875 -9.765625 4.738281 -9.554688 5.25 -9.140625 C 5.757812 -8.734375 6.015625 -8.140625 6.015625 -7.359375 C 6.015625 -6.960938 5.953125 -6.597656 5.828125 -6.265625 C 5.710938 -5.941406 5.585938 -5.664062 5.453125 -5.4375 L 3.171875 -1.609375 L 5.890625 -1.609375 L 5.890625 0 L 0.421875 0 L 0.421875 -1.375 L 3.09375 -5.890625 C 3.289062 -6.222656 3.441406 -6.515625 3.546875 -6.765625 C 3.660156 -7.015625 3.71875 -7.273438 3.71875 -7.546875 C 3.71875 -7.710938 3.671875 -7.859375 3.578125 -7.984375 C 3.492188 -8.109375 3.363281 -8.171875 3.1875 -8.171875 C 2.8125 -8.171875 2.625 -7.914062 2.625 -7.40625 L 2.625 -6.28125 L 0.421875 -6.28125 L 0.421875 -7.046875 C 0.421875 -7.929688 0.65625 -8.601562 1.125 -9.0625 C 1.601562 -9.53125 2.285156 -9.765625 3.171875 -9.765625 Z M 3.171875 -9.765625 " />
        </g>
        <!-- Letter 3 -->
        <g transform="translate(20.73, 10.42)">
            <path fill="#000000" d="M 3.21875 -9.765625 C 3.832031 -9.765625 4.351562 -9.65625 4.78125 -9.4375 C 5.207031 -9.21875 5.519531 -8.925781 5.71875 -8.5625 C 5.925781 -8.207031 6.03125 -7.804688 6.03125 -7.359375 L 6.03125 -2.21875 C 6.03125 -1.769531 5.925781 -1.359375 5.71875 -0.984375 C 5.507812 -0.617188 5.191406 -0.328125 4.765625 -0.109375 C 4.347656 0.0976562 3.832031 0.203125 3.21875 0.203125 C 2.601562 0.203125 2.082031 0.09375 1.65625 -0.125 C 1.226562 -0.34375 0.910156 -0.632812 0.703125 -1 C 0.503906 -1.363281 0.40625 -1.769531 0.40625 -2.21875 L 0.40625 -7.359375 C 0.40625 -7.804688 0.507812 -8.210938 0.71875 -8.578125 C 0.925781 -8.941406 1.238281 -9.226562 1.65625 -9.4375 C 2.082031 -9.65625 2.601562 -9.765625 3.21875 -9.765625 Z M 2.78125 -7.734375 L 2.78125 -1.953125 C 2.78125 -1.816406 2.8125 -1.675781 2.875 -1.53125 C 2.9375 -1.394531 3.050781 -1.328125 3.21875 -1.328125 C 3.5 -1.328125 3.640625 -1.546875 3.640625 -1.984375 L 3.640625 -7.859375 C 3.640625 -7.960938 3.601562 -8.066406 3.53125 -8.171875 C 3.457031 -8.273438 3.347656 -8.328125 3.203125 -8.328125 C 3.066406 -8.328125 2.960938 -8.273438 2.890625 -8.171875 C 2.816406 -8.066406 2.78125 -7.921875 2.78125 -7.734375 Z M 2.78125 -7.734375 " />
        </g>
        <!-- Letter 4 -->
        <g transform="translate(28.48, 10.42)">
            <path fill="#000000" d="M 3.171875 -9.765625 C 4.046875 -9.765625 4.738281 -9.554688 5.25 -9.140625 C 5.757812 -8.734375 6.015625 -8.140625 6.015625 -7.359375 C 6.015625 -6.960938 5.953125 -6.597656 5.828125 -6.265625 C 5.710938 -5.941406 5.585938 -5.664062 5.453125 -5.4375 L 3.171875 -1.609375 L 5.890625 -1.609375 L 5.890625 0 L 0.421875 0 L 0.421875 -1.375 L 3.09375 -5.890625 C 3.289062 -6.222656 3.441406 -6.515625 3.546875 -6.765625 C 3.660156 -7.015625 3.71875 -7.273438 3.71875 -7.546875 C 3.71875 -7.710938 3.671875 -7.859375 3.578125 -7.984375 C 3.492188 -8.109375 3.363281 -8.171875 3.1875 -8.171875 C 2.8125 -8.171875 2.625 -7.914062 2.625 -7.40625 L 2.625 -6.28125 L 0.421875 -6.28125 L 0.421875 -7.046875 C 0.421875 -7.929688 0.65625 -8.601562 1.125 -9.0625 C 1.601562 -9.53125 2.285156 -9.765625 3.171875 -9.765625 Z M 3.171875 -9.765625 " />
        </g>
        <!-- Letter 5 -->
        <g transform="translate(36.22, 10.42)">
            <path fill="#000000" d="M 5.390625 -3.359375 L 6.140625 -3.359375 L 6.140625 -1.75 L 5.390625 -1.75 L 5.390625 0 L 3.078125 0 L 3.078125 -1.75 L 0.296875 -1.75 L 0.296875 -3.25 L 2.40625 -9.578125 L 5.390625 -9.578125 Z M 1.984375 -3.359375 L 3.171875 -3.359375 L 3.171875 -8.203125 L 3.15625 -8.203125 Z M 1.984375 -3.359375 " />
        </g>
    </g>
</svg>
